<?xml version="1.0" encoding="UTF-8" standalone="no"?>
<!-- Created with Inkscape (http://www.inkscape.org/) -->

<svg
   xmlns:dc="http://purl.org/dc/elements/1.1/"
   xmlns:cc="http://creativecommons.org/ns#"
   xmlns:rdf="http://www.w3.org/1999/02/22-rdf-syntax-ns#"
   xmlns:svg="http://www.w3.org/2000/svg"
   xmlns="http://www.w3.org/2000/svg"
   xmlns:sodipodi="http://sodipodi.sourceforge.net/DTD/sodipodi-0.dtd"
   xmlns:inkscape="http://www.inkscape.org/namespaces/inkscape"
   id="svg2"
   version="1.1"
   inkscape:version="0.91 r13725"
   xml:space="preserve"
   width="1326.8375"
   height="955.5"
   viewBox="0 0 1326.8375 955.5"
   sodipodi:docname="LOGO SPAZIO ANIMALE-white.svg"><metadata
     id="metadata8"><rdf:RDF><cc:Work
         rdf:about=""><dc:format>image/svg+xml</dc:format><dc:type
           rdf:resource="http://purl.org/dc/dcmitype/StillImage" /><dc:title></dc:title></cc:Work></rdf:RDF></metadata><defs
     id="defs6" /><sodipodi:namedview
     pagecolor="#ffffff"
     bordercolor="#666666"
     borderopacity="1"
     objecttolerance="10"
     gridtolerance="10"
     guidetolerance="10"
     inkscape:pageopacity="0"
     inkscape:pageshadow="2"
     inkscape:window-width="1600"
     inkscape:window-height="863"
     id="namedview4"
     showgrid="false"
     inkscape:zoom="0.2469911"
     inkscape:cx="203.88804"
     inkscape:cy="477.75"
     inkscape:window-x="0"
     inkscape:window-y="0"
     inkscape:window-maximized="1"
     inkscape:current-layer="g10" /><g
     id="g10"
     inkscape:groupmode="layer"
     inkscape:label="ink_ext_XXXXXX"
     transform="matrix(1.25,0,0,-1.25,0,955.5)"><path
       inkscape:connector-curvature="0"
       id="path14"
       style="fill:#ffffff;fill-opacity:1;fill-rule:nonzero;stroke:none"
       d="m 134.401,70.2461 -7.314,-6.4313 c -1.892,1.3454 -3.529,2.3641 -4.918,3.0582 -1.389,0.6942 -3.027,1.0411 -4.918,1.0411 -4.456,0 -6.685,-1.6399 -6.685,-4.92 0,-2.3531 2.827,-4.641 8.481,-6.857 5.654,-2.216 9.722,-4.65 12.202,-7.2961 2.481,-2.6441 3.721,-5.8351 3.721,-9.573 0,-4.366 -1.787,-8.1789 -5.361,-11.4321 -3.573,-3.257 -7.777,-4.8828 -12.61,-4.8828 -7.357,0 -13.392,3.4059 -18.0986,10.2149 l 8.6386,4.1609 c 3.027,-2.943 6.18,-4.4137 9.46,-4.4137 2.27,0 4.256,0.62 5.958,1.8598 1.702,1.241 2.554,2.6832 2.554,4.3199 0,2.9012 -2.986,5.5102 -8.953,7.8281 -5.971,2.3172 -10.101,4.6629 -12.391,7.036 -2.293,2.3762 -3.438,5.3039 -3.438,8.793 0,4.3261 1.629,7.9281 4.888,10.8062 3.257,2.877 7.345,4.3168 12.264,4.3168 4.918,0 10.426,-2.5418 16.52,-7.6289"
       inkscape:export-xdpi="90"
       inkscape:export-ydpi="90" /><path
       inkscape:connector-curvature="0"
       id="path16"
       style="fill:#ffffff;fill-opacity:1;fill-rule:nonzero;stroke:none"
       d="m 191.658,50.6352 c 0,4.582 -1.72,8.5859 -5.162,12.0117 -3.439,3.4261 -7.489,5.1402 -12.146,5.1402 -4.744,0 -8.844,-1.7019 -12.307,-5.1101 -3.462,-3.402 -5.192,-7.418 -5.192,-12.0418 0,-4.7512 1.71,-8.8704 5.129,-12.359 3.42,-3.4903 7.458,-5.234 12.118,-5.234 4.825,0 8.959,1.725 12.398,5.1699 3.442,3.4469 5.162,7.5867 5.162,12.4231 z m -33.294,25.7886 0,-10.4636 c 5.247,7.9449 11.965,11.9148 20.151,11.9148 6.715,0 12.499,-2.677 17.346,-8.0371 4.849,-5.3629 7.273,-11.7609 7.273,-19.2027 0,-7.5243 -2.456,-14.0211 -7.367,-19.4852 -4.912,-5.466 -10.705,-8.1969 -17.379,-8.1969 -3.863,0 -7.568,1.0078 -11.113,3.027 -3.548,2.0179 -6.476,4.939 -8.785,8.7648 l 0,-34.7449 -10.972,0 0,76.4238 10.846,0"
       inkscape:export-xdpi="90"
       inkscape:export-ydpi="90" /><path
       inkscape:connector-curvature="0"
       id="path18"
       style="fill:#ffffff;fill-opacity:1;fill-rule:nonzero;stroke:none"
       d="m 262.599,50.2578 c 0,4.7492 -1.706,8.8184 -5.118,12.2004 -3.41,3.3828 -7.497,5.0789 -12.255,5.0789 -4.633,0 -8.676,-1.684 -12.129,-5.0469 -3.453,-3.3632 -5.18,-7.3152 -5.18,-11.855 0,-4.918 1.684,-9.1012 5.054,-12.5481 3.368,-3.4473 7.453,-5.1719 12.255,-5.1719 4.758,0 8.845,1.7137 12.255,5.1387 3.412,3.4262 5.118,7.4941 5.118,12.2039 z m -1.513,26.166 10.972,0 0,-52.0207 -10.972,0 0,10.3418 c -5.34,-7.8609 -11.961,-11.7918 -19.863,-11.7918 -6.854,0 -12.707,2.6891 -17.563,8.0719 -4.856,5.3801 -7.283,11.9172 -7.283,19.6102 0,7.273 2.448,13.6308 7.347,19.075 4.896,5.4437 10.645,8.1648 17.246,8.1648 4.076,0 7.945,-1.1141 11.602,-3.341 3.658,-2.2281 6.496,-5.1281 8.514,-8.6988 l 0,10.5886"
       inkscape:export-xdpi="90"
       inkscape:export-ydpi="90" /><path
       inkscape:connector-curvature="0"
       id="path20"
       style="fill:#ffffff;fill-opacity:1;fill-rule:nonzero;stroke:none"
       d="m 284.417,76.4238 49.184,0 -31.354,-42.4359 31.102,0 0,-9.5848 -49.563,0 31.717,42.502 -31.086,0 0,9.5187"
       inkscape:export-xdpi="90"
       inkscape:export-ydpi="90" /><path
       inkscape:connector-curvature="0"
       id="path22"
       style="fill:#ffffff;fill-opacity:1;fill-rule:nonzero;stroke:none"
       d="m 346.15,76.4238 10.847,0 0,-52.0207 -10.847,0 0,52.0207 z m -3.089,17.091 c 0,2.2704 0.839,4.2344 2.522,5.8973 1.68,1.6579 3.677,2.4879 5.989,2.4879 2.271,0 4.236,-0.83 5.896,-2.4879 1.661,-1.6629 2.491,-3.6269 2.491,-5.8973 0,-2.3117 -0.83,-4.2898 -2.491,-5.9277 -1.66,-1.6402 -3.625,-2.4582 -5.896,-2.4582 -2.312,0 -4.309,0.818 -5.989,2.4582 -1.683,1.6379 -2.522,3.616 -2.522,5.9277"
       inkscape:export-xdpi="90"
       inkscape:export-ydpi="90" /><path
       inkscape:connector-curvature="0"
       id="path24"
       style="fill:#ffffff;fill-opacity:1;fill-rule:nonzero;stroke:none"
       d="m 415.641,50.6031 c 0,4.4211 -1.684,8.266 -5.046,11.5297 -3.365,3.2652 -7.356,4.8981 -11.981,4.8981 -4.751,0 -8.839,-1.6528 -12.264,-4.9618 -3.427,-3.305 -5.139,-7.2531 -5.139,-11.8429 0,-4.384 1.732,-8.2172 5.202,-11.4992 3.468,-3.2872 7.535,-4.929 12.201,-4.929 4.541,0 8.513,1.686 11.918,5.0551 3.406,3.3699 5.109,7.2867 5.109,11.75 z m -45.151,0.0321 c 0,7.1039 2.805,13.4207 8.418,18.9488 5.612,5.5269 12.054,8.291 19.328,8.291 7.482,0 14.019,-2.7211 19.611,-8.1648 5.591,-5.4442 8.386,-11.802 8.386,-19.075 0,-7.3141 -2.743,-13.7571 -8.229,-19.3282 -5.485,-5.5699 -11.822,-8.3539 -19.012,-8.3539 -7.691,0 -14.367,2.752 -20.02,8.261 -5.656,5.5058 -8.482,11.98 -8.482,19.4211"
       inkscape:export-xdpi="90"
       inkscape:export-ydpi="90" /><path
       inkscape:connector-curvature="0"
       id="path26"
       style="fill:#af43a8;fill-opacity:1;fill-rule:nonzero;stroke:none"
       d="m 461.789,76.568 -9.732,-24.402 19.675,0 -9.943,24.402 z m -6.913,27.114 13.824,0 33.731,-82.7941 -17.958,0 -6.627,16.2703 -31.776,0 -6.489,-16.2703 -17.864,0 33.159,82.7941"
       inkscape:export-xdpi="90"
       inkscape:export-ydpi="90" /><path
       inkscape:connector-curvature="0"
       id="path28"
       style="fill:#af43a8;fill-opacity:1;fill-rule:nonzero;stroke:none"
       d="m 569.713,103.682 17.467,0 0,-82.7941 -17.382,0 -37.857,53.5992 0,-53.5992 -17.844,0 0,82.7941 17.645,0 37.971,-53.2199 0,53.2199"
       inkscape:export-xdpi="90"
       inkscape:export-ydpi="90" /><path
       inkscape:connector-curvature="0"
       id="path30"
       style="fill:#af43a8;fill-opacity:1;fill-rule:nonzero;stroke:none"
       d="m 602.943,20.8879 17.848,0 0,82.7941 -17.848,0 0,-82.7941 z"
       inkscape:export-xdpi="90"
       inkscape:export-ydpi="90" /><path
       inkscape:connector-curvature="0"
       id="path32"
       style="fill:#af43a8;fill-opacity:1;fill-rule:nonzero;stroke:none"
       d="m 643.318,103.682 21.204,0 15.51,-49.623 15.52,49.623 20.452,0 10.659,-82.7941 -16.998,0 -7.309,58.266 -18.224,-58.266 -8.1,0 -18.699,58.7691 -6.901,-58.7691 -17.284,0 10.17,82.7941"
       inkscape:export-xdpi="90"
       inkscape:export-ydpi="90" /><path
       inkscape:connector-curvature="0"
       id="path34"
       style="fill:#af43a8;fill-opacity:1;fill-rule:nonzero;stroke:none"
       d="m 775.313,76.568 -9.733,-24.402 19.674,0 -9.941,24.402 z m -6.914,27.114 13.825,0 33.731,-82.7941 -17.96,0 -6.627,16.2703 -31.773,0 -6.491,-16.2703 -17.865,0 33.16,82.7941"
       inkscape:export-xdpi="90"
       inkscape:export-ydpi="90" /><path
       inkscape:connector-curvature="0"
       id="path36"
       style="fill:#af43a8;fill-opacity:1;fill-rule:nonzero;stroke:none"
       d="m 828.881,103.682 17.72,0 0,-64.9468 24.401,0 0,-17.8473 -42.121,0 0,82.7941"
       inkscape:export-xdpi="90"
       inkscape:export-ydpi="90" /><path
       inkscape:connector-curvature="0"
       id="path38"
       style="fill:#af43a8;fill-opacity:1;fill-rule:nonzero;stroke:none"
       d="m 883.74,103.682 46.601,0 0,-16.3918 -28.755,0 0,-16.7121 28.755,0 0,-16.1441 -28.755,0 0,-17.1508 28.755,0 0,-16.3953 -46.601,0 0,82.7941"
       inkscape:export-xdpi="90"
       inkscape:export-ydpi="90" /><path
       inkscape:connector-curvature="0"
       id="path40"
       style="fill:#af43a8;fill-opacity:1;fill-rule:nonzero;stroke:none"
       d="M 338.851,138.26 C 282.611,171.849 195.108,247.626 192.755,396.191 190.503,538.66 274.949,660.099 390.144,706.494 256.318,672.865 149.646,541.36 156.454,384.472 c 6.62,-152.465 63.4,-206.716 84.75,-232.937 2.186,-2.682 4.128,-4.621 6.334,-6.123 C 171.031,141.227 66.2988,124.307 0,103.682 c 0,0 137.104,24.609 339.829,33.982 -0.303,0.214 -0.724,0.394 -1.054,0.596 0.027,0 0.045,0 0.076,0" /><path
       inkscape:connector-curvature="0"
       id="path42"
       style="fill:#af43a8;fill-opacity:1;fill-rule:evenodd;stroke:none"
       d="m 649.406,221.591 c 0.317,2.225 -0.923,5.174 -1.011,8.124 -1.074,35.989 17.978,47.859 41.435,67.443 10.537,8.795 20.271,18.801 27.857,28.832 8.305,10.982 15.805,27.832 25.55,35.912 1.786,1.451 4.575,2.358 6.166,1.369 2.263,-1.039 3.752,-4.189 3.535,-7.602 0,0 -1.289,-7.894 -3.109,-13.575 -6.359,-25.453 -16.822,-46.914 -24.808,-70.645 24.47,2.608 38.272,22.726 49.358,38.066 -2.052,10.914 -10.133,39.52 -10.133,39.52 -0.98,3.513 -9.893,17.563 -9.893,17.563 -18.692,26.508 -40.302,51.618 -61.132,71.642 -8.284,7.191 -18.147,11.101 -28.322,15.07 -9.938,3.872 -20.718,9.072 -33.005,8.734 -0.214,-8.202 5.685,-14.992 6.815,-24.308 -4.523,-3.295 -8.266,-7.552 -11.162,-12.113 l -10e-4,0.002 c 0,0 -8.232,-9.4 -5.954,-20.781 0.189,-1.327 0.568,-12.136 -5.595,-20.387 -1.541,-1.801 -3.247,-3.864 -1.327,-6.922 0.569,-0.906 1.412,-2.002 2.353,-3.262 3.316,-5.616 7.784,-9.817 12.888,-12.559 0.033,-0.018 0.065,-0.04 0.097,-0.058 10e-4,0.002 0.004,0.004 0.004,0.006 7.506,-3.995 16.378,-4.835 25.021,-2.296 1.794,-1.337 2.349,-1.978 2.803,-2.421 5.994,-14.166 -0.847,-22.691 -7.445,-31.97 -14.982,-21.06 -44.615,-27.275 -73.321,-39.499 -28.562,-12.158 -74.751,-33.961 -85.188,-51.184 -3.247,-5.36 -3.715,-13.092 -0.241,-19.777 0,0 3.074,-8.238 26.669,-16.355 18.826,-6.477 39.684,-10.803 61.015,-10.049 14.633,0.515 33.989,2.966 49.246,10.734 8.797,4.473 19.646,14.39 20.835,22.746" /><path
       inkscape:connector-curvature="0"
       id="path44"
       style="fill:#af43a8;fill-opacity:1;fill-rule:evenodd;stroke:none"
       d="m 428.201,279.477 c 0.014,0.006 0.028,0.012 0.039,0.017 -0.097,0.178 -0.203,0.351 -0.301,0.531 l -0.001,-0.006 c 0.083,-0.183 0.18,-0.361 0.263,-0.542" /><path
       inkscape:connector-curvature="0"
       id="path46"
       style="fill:#37979d;fill-opacity:1;fill-rule:evenodd;stroke:none"
       d="m 798.836,645.666 c 2.5,4.511 3.004,12.041 5.34,16.808 -0.103,-5.376 -1.125,-11.365 -2.271,-17.433 6.679,2.209 12.019,6.446 17.965,9.764 -3.419,-3.932 -11.024,-8.485 -16.011,-12.718 5.454,-2.054 11.778,-3.535 18.161,-4.974 1.556,0.208 2.65,-1.442 0.488,-0.738 -1.022,0.209 -2.044,0.417 -3.07,0.625 -4.729,-0.075 -10.59,1.562 -15.59,1.894 1.333,-5.14 6.586,-12.279 9.763,-17.966 -3.993,3.38 -8.357,11.106 -12.717,16.009 -2.071,-4.889 -3.507,-10.746 -4.726,-16.93 -1.522,4.479 1.09,11.694 1.658,17.555 -6.426,-2.86 -12.478,-6.287 -18.09,-10.376 3.16,4.589 11.336,8.547 16.136,13.331 -4.727,1.474 -10.347,2.358 -14.478,4.229 -1.281,0.43 -6.643,0.856 -4.785,1.612 6.684,-1.272 13.248,-2.37 19.272,-2.646 -1.72,4.705 -6.123,12.227 -9.887,17.352 4.41,-2.926 8.276,-10.809 12.842,-15.398" /><path
       inkscape:connector-curvature="0"
       id="path48"
       style="fill:#37979d;fill-opacity:1;fill-rule:evenodd;stroke:none"
       d="m 708.988,740.752 c 2.09,6.636 0.729,16.721 2.533,23.648 1.313,-7.133 1.571,-15.321 1.688,-23.648 8.232,4.714 14.148,11.753 21.111,17.735 -3.459,-6.114 -12.281,-14.175 -17.732,-21.111 7.758,-1.247 16.512,-1.503 25.334,-1.688 2.002,0.694 3.891,-1.192 0.844,-0.845 -1.407,0 -2.813,0 -4.223,0 -6.232,-1.368 -14.414,-0.783 -21.111,-1.691 3.144,-6.433 12.006,-14.452 17.734,-21.113 -6.186,3.393 -14.031,12.425 -21.111,17.735 -1.422,-7.019 -1.744,-15.143 -1.69,-23.644 -3.217,5.508 -1.707,15.746 -2.531,23.644 -7.725,-5.508 -14.797,-11.662 -21.113,-18.578 2.941,6.916 12.679,14.342 17.734,21.956 -6.642,0.677 -14.305,0.333 -20.267,1.691 -1.809,0.227 -9.008,-0.654 -6.756,0.845 9.173,0.116 18.142,0.433 26.177,1.688 -3.539,5.755 -11.38,14.51 -17.734,20.269 6.613,-2.679 13.844,-12.055 21.113,-16.893" /><path
       inkscape:connector-curvature="0"
       id="path50"
       style="fill:#37979d;fill-opacity:1;fill-rule:evenodd;stroke:none"
       d="m 765.572,600.154 c -0.609,0 -1.218,0 -1.829,0 -2.698,-0.594 -6.242,-0.34 -9.142,-0.733 1.362,-2.786 5.2,-6.259 7.679,-9.142 -2.678,1.468 -6.075,5.381 -9.141,7.68 -0.616,-3.039 -0.756,-6.559 -0.733,-10.241 -1.392,2.387 -0.738,6.819 -1.095,10.241 -3.345,-2.387 -6.409,-5.052 -9.145,-8.046 1.275,2.994 5.492,6.212 7.682,9.508 -2.877,0.293 -6.196,0.144 -8.778,0.733 -0.783,0.098 -3.902,-0.283 -2.925,0.365 3.972,0.051 7.857,0.188 11.335,0.731 -1.532,2.492 -4.927,6.284 -7.679,8.779 2.865,-1.161 5.995,-5.222 9.143,-7.317 0.906,2.874 0.316,7.242 1.097,10.241 0.568,-3.088 0.681,-6.634 0.732,-10.241 3.565,2.043 6.127,5.09 9.143,7.681 -1.498,-2.648 -5.32,-6.139 -7.681,-9.143 3.361,-0.54 7.152,-0.651 10.972,-0.731 0.867,0.301 1.685,-0.515 0.365,-0.365 z m -20.063,-70.897 c -1.452,0.316 -2.904,0.631 -4.361,0.947 -6.738,-0.018 -15.052,2.421 -22.169,2.985 1.804,-7.345 9.154,-17.608 13.573,-25.766 -5.623,4.887 -11.697,15.97 -17.816,23.036 -3.038,-6.926 -5.193,-15.241 -7.042,-24.026 -2.085,6.406 1.768,16.633 2.686,24.972 -9.206,-3.955 -17.888,-8.723 -25.956,-14.443 4.588,6.476 16.303,11.961 23.227,18.686 -6.706,2.188 -14.69,3.549 -20.542,6.289 -1.815,0.638 -9.443,1.344 -6.783,2.386 9.496,-1.937 18.824,-3.62 27.398,-4.125 -2.363,6.732 -8.494,17.525 -13.761,24.895 6.226,-4.25 11.586,-15.547 18.005,-22.168 3.643,6.381 4.501,17.095 7.915,23.84 -0.245,-7.655 -1.812,-16.164 -3.557,-24.787 9.553,3.023 17.237,8.96 25.766,13.574 -4.942,-5.536 -15.857,-11.879 -23.035,-17.815 7.727,-3.028 16.707,-5.251 25.769,-7.419 2.223,0.267 3.748,-2.104 0.683,-1.061 z m -117.058,97.717 c -4.056,2.432 -6.728,9.625 -10.086,14.464 -3.052,-6.337 -5.454,-12.864 -7.092,-19.612 -0.554,5.545 3.123,13.849 3.692,20.603 -4.561,-1.933 -9.418,-4.891 -13.779,-6.135 -1.256,-0.499 -5.623,-3.642 -4.694,-1.864 5.922,3.351 11.641,6.758 16.414,10.442 -4.354,2.477 -12.576,5.368 -18.761,6.844 5.255,0.62 13.3,-2.894 19.752,-3.443 -1.01,5.059 -5.494,11.129 -6.793,16.275 3.396,-4.168 6.488,-9.397 9.539,-14.768 3.666,6.004 5,12.688 7.39,19.064 -0.064,-5.21 -2.924,-13.6 -3.99,-20.053 5.488,1.959 11.27,4.918 17.069,7.947 1.054,1.165 2.954,0.613 0.851,-0.247 -0.915,-0.503 -1.83,-1.005 -2.746,-1.509 -3.561,-3.114 -9.09,-5.654 -13.119,-8.635 4.34,-3.059 12.965,-5.109 19.064,-7.392 -5.23,-0.004 -13.555,3.068 -20.053,3.99 1.582,-5.068 4.274,-10.466 7.342,-15.971 z M 754.75,160.929 c 60.415,59.367 93.449,140.098 93.449,235.236 0,181.211 -138.503,328.11 -309.36,328.11 -170.859,0 -309.363,-146.899 -309.363,-328.11 0,-104.221 45.866,-197.033 117.308,-257.136 12.451,0.551 25.031,1.035 37.658,1.476 -77.737,52.878 -129.185,144.446 -129.185,248.625 0,11.299 0.658,22.432 1.839,33.399 0.055,-0.521 0.118,-1.038 0.176,-1.557 13.062,-110.602 106.503,-162.455 136.071,-169.278 75.5,-16.837 117.493,5.297 123.388,8.725 14.632,8.835 30.239,16.309 36.774,19.253 12.944,5.833 49.643,19.63 74.109,31.864 24.464,12.231 21.133,24.462 21.133,24.462 -1.665,17.338 -24.72,10.575 -38.803,7.471 -14.198,-3.126 -28.281,-8.776 -38.447,-4.586 -12.375,5.102 -16.177,17.992 -21.143,34.057 -1.378,6.004 1.04,9.617 3.024,11.468 0.71,0.525 1.436,1.048 2.183,1.571 12.733,8.924 30.145,17.395 30.384,25.845 -4.465,26.116 13.753,35.184 26.489,49.015 -7.546,8.215 -10.842,22.005 -14.253,34.065 37.191,-5.182 68.997,-13.549 94.964,-35.437 25.53,-21.523 45.794,-50.027 63.247,-84.838 -4.833,15.233 -9.773,37.19 4.04,44.124 0,0 5.396,2.07 7.009,-10.197 1.581,-12.038 9.742,-35.495 10.452,-42.534 0,0 0.901,-23.94 -1.073,-29.422 3.466,9.778 6.326,20.436 8.327,31.402 0.403,2.044 -2.84,29.524 -2.84,29.524 0,0 -6.105,35.6 11.086,40.547 4.548,-2.043 4.408,-11.809 5.235,-17.066 l 6.88,-28.087 c 8.85,-36.199 -16.231,-50.617 -25.309,-75.306 7.952,14.067 21.43,30.915 29.452,45.866 5.277,9.837 4.245,33.652 25.206,30.528 -0.487,-6.053 -1.36,-12.108 -2.534,-18.147 -0.012,-0.077 -0.028,-0.163 -0.049,-0.258 -0.002,-0.002 -0.002,-0.006 -0.002,-0.008 -3.721,-18.998 -10.433,-37.811 -17.655,-55.792 -30.1,-74.946 -78.997,-148.942 -169.416,-183.336 -3.552,-1.351 -7.098,-2.607 -10.64,-3.78 -0.001,-0.002 -0.004,-0.006 -0.005,-0.008 10.599,-0.366 30.465,3.331 88.786,2.76 65.389,-0.635 123.993,-4.03 173.316,-8.318 l 164.812,-21.679 c 0,0 -130.053,49.935 -306.72,55.487" /></g></svg>